<?xml version="1.0" standalone="no"?>
<!DOCTYPE svg PUBLIC "-//W3C//DTD SVG 20010904//EN"
 "http://www.w3.org/TR/2001/REC-SVG-20010904/DTD/svg10.dtd">
<svg version="1.0" xmlns="http://www.w3.org/2000/svg"
 width="398.000000pt" height="435.000000pt" viewBox="0 0 398.000000 435.000000"
 preserveAspectRatio="xMidYMid meet">

<!-- Fundo branco apenas dentro do escudo -->
<g transform="translate(0.000000,435.000000) scale(0.100000,-0.100000)">
<path d="M1905 3924 c-83 -52 -195 -97 -325 -131 -132 -35 -364 -36 -520 -4
-132 27 -274 71 -380 116 -45 19 -86 35 -91 35 -6 0 -9 -370 -6 -1012 4 -1112
2 -1084 67 -1340 74 -297 197 -516 404 -724 190 -189 412 -324 700 -423 211
-73 225 -75 314 -51 581 160 999 498 1182 955 60 149 93 272 127 470 15 88 17
219 20 1113 2 556 1 1012 -4 1012 -4 0 -57 -20 -118 -44 -226 -92 -402 -128
-615 -128 -215 -1 -413 52 -582 153 -44 27 -86 49 -92 48 -6 -1 -42 -21 -81
-45z m333 -194 c144 -52 229 -65 432 -64 207 0 302 15 501 80 58 19 109 34
112 34 4 0 7 -409 7 -910 0 -772 -2 -926 -16 -1022 -39 -282 -116 -500 -249
-704 -71 -108 -258 -297 -365 -370 -168 -115 -376 -212 -577 -269 l-93 -26
-92 26 c-205 59 -409 154 -578 269 -107 73 -294 262 -365 370 -133 204 -210
422 -249 704 -14 96 -16 250 -16 1022 0 501 3 910 7 910 3 0 54 -15 112 -34
165 -54 289 -76 451 -83 241 -9 427 30 635 135 l97 48 85 -44 c47 -24 119 -57
161 -72z" fill="#ffffff" stroke="none"/>
</g>

<!-- Contorno e elementos brancos do escudo -->
<g transform="translate(0.000000,435.000000) scale(0.100000,-0.100000)"
fill="#ffffff" stroke="none">
<path d="M1905 3924 c-83 -52 -195 -97 -325 -131 -132 -35 -364 -36 -520 -4
-132 27 -274 71 -380 116 -45 19 -86 35 -91 35 -6 0 -9 -370 -6 -1012 4 -1112
2 -1084 67 -1340 74 -297 197 -516 404 -724 190 -189 412 -324 700 -423 211
-73 225 -75 314 -51 581 160 999 498 1182 955 60 149 93 272 127 470 15 88 17
219 20 1113 2 556 1 1012 -4 1012 -4 0 -57 -20 -118 -44 -226 -92 -402 -128
-615 -128 -215 -1 -413 52 -582 153 -44 27 -86 49 -92 48 -6 -1 -42 -21 -81
-45z m333 -194 c144 -52 229 -65 432 -64 207 0 302 15 501 80 58 19 109 34
112 34 4 0 7 -409 7 -910 0 -772 -2 -926 -16 -1022 -39 -282 -116 -500 -249
-704 -71 -108 -258 -297 -365 -370 -168 -115 -376 -212 -577 -269 l-93 -26
-92 26 c-205 59 -409 154 -578 269 -107 73 -294 262 -365 370 -133 204 -210
422 -249 704 -14 96 -16 250 -16 1022 0 501 3 910 7 910 3 0 54 -15 112 -34
165 -54 289 -76 451 -83 241 -9 427 30 635 135 l97 48 85 -44 c47 -24 119 -57
161 -72z"/>
<path d="M1773 3536 c-66 -56 -52 -129 34 -178 88 -50 114 -100 75 -148 -9
-12 -33 -26 -52 -31 -32 -8 -30 -8 15 -5 66 5 105 46 105 110 0 55 -19 78 -95
119 -33 18 -66 44 -75 60 -13 24 -13 30 0 55 31 55 105 37 136 -33 l13 -30 1
45 c0 36 -4 46 -17 47 -10 1 -38 5 -63 8 -40 6 -50 4 -77 -19z"/>
<path d="M859 3533 c21 -17 22 -23 19 -173 -3 -153 -3 -155 -28 -167 -22 -11
-18 -13 40 -11 36 0 55 3 42 5 -13 3 -27 16 -33 29 -11 31 -12 282 -1 269 5
-6 37 -77 72 -158 40 -94 66 -144 71 -135 4 7 33 74 64 148 31 74 61 139 66
145 12 12 12 -237 0 -269 -6 -13 -18 -26 -28 -29 -10 -3 20 -5 67 -6 75 -1 82
1 60 12 -25 12 -25 14 -28 167 -3 148 -2 156 19 173 21 17 20 17 -29 17 l-50
0 -58 -140 c-33 -77 -61 -140 -64 -140 -3 0 -30 62 -60 138 l-55 137 -54 3
c-54 3 -54 3 -32 -15z"/>
<path d="M1487 3543 c-3 -5 -28 -68 -56 -142 -67 -175 -78 -196 -104 -209 -18
-9 -12 -11 36 -11 l57 -1 -20 20 c-25 25 -25 27 0 84 l19 46 59 0 59 0 17 -43
c22 -59 21 -86 -6 -97 -16 -6 4 -9 67 -9 50 1 83 3 75 6 -34 13 -51 41 -116
198 -63 154 -76 177 -87 158z m18 -133 c9 -25 19 -51 22 -57 4 -10 -10 -13
-51 -13 l-56 0 19 48 c10 26 21 56 25 66 8 24 18 14 41 -44z"/>
<path d="M1986 3528 c-3 -13 -6 -36 -5 -53 l0 -30 10 25 c20 50 49 70 101 70
l48 0 0 -158 c0 -160 -4 -182 -40 -195 -8 -3 23 -5 70 -5 47 0 78 2 70 5 -36
13 -40 35 -40 195 l0 158 40 0 c53 0 84 -16 103 -53 l16 -32 0 48 1 47 -184 0
c-182 0 -184 0 -190 -22z"/>
<path d="M2419 3533 c21 -17 22 -25 19 -173 -3 -153 -3 -155 -28 -167 -21 -11
0 -13 138 -13 l162 0 -1 58 c-1 52 -2 54 -10 25 -14 -47 -52 -73 -110 -73 -67
0 -89 29 -89 117 l0 64 33 -3 c25 -2 36 -10 49 -38 l18 -35 -1 75 c0 41 -3 68
-6 60 -11 -30 -37 -50 -65 -50 l-28 0 0 80 0 80 63 0 c53 0 67 -4 84 -22 12
-13 23 -32 26 -43 3 -11 5 1 6 28 l1 47 -141 0 c-136 0 -140 -1 -120 -17z"/>
<path d="M2768 3533 c22 -17 23 -23 20 -173 -3 -153 -3 -155 -28 -167 -22 -11
-15 -13 60 -12 57 0 78 3 64 9 -12 4 -24 15 -27 24 -4 9 -6 85 -6 171 l-1 155
31 0 c17 0 39 -4 49 -10 23 -12 43 -70 34 -96 -12 -34 -47 -64 -73 -64 l-26 0
25 -13 c16 -8 39 -41 65 -94 l40 -82 45 0 c36 0 41 2 27 10 -9 6 -35 46 -57
90 -22 43 -46 79 -53 79 -6 0 2 9 20 20 58 35 70 90 29 137 -24 27 -27 28
-142 31 -116 4 -118 4 -96 -15z"/>
<path d="M1721 3240 l-1 -55 35 -1 35 -1 -24 26 c-13 14 -28 40 -34 56 -10 28
-10 26 -11 -25z"/>
<path d="M950 2440 l0 -630 115 0 115 0 0 630 0 630 -115 0 -115 0 0 -630z"/>
<path d="M1410 2816 c0 -232 -2 -255 -19 -277 -28 -37 -72 -127 -93 -194 -25
-78 -34 -250 -19 -341 47 -266 240 -480 511 -566 107 -33 292 -33 400 1 208
64 361 197 454 390 53 110 69 199 63 339 -6 152 -38 252 -118 369 l-29 42 0
245 0 246 -115 0 -115 0 0 -150 0 -150 -37 18 c-38 19 -113 45 -165 56 l-28 6
0 110 0 110 -115 0 -114 0 -3 -111 -3 -112 -55 -14 c-30 -8 -79 -25 -109 -38
-29 -14 -55 -25 -57 -25 -2 0 -4 68 -4 150 l0 150 -115 0 -115 0 0 -254z m361
-43 c-22 -37 -49 -62 -151 -135 -58 -41 -111 -78 -118 -82 -24 -14 -72 -25
-72 -16 0 18 106 123 162 161 62 42 154 89 176 89 9 0 10 -5 3 -17z m508 -8
c76 -36 170 -105 225 -166 67 -75 61 -86 -22 -46 -51 25 -193 125 -228 161
-11 12 -29 34 -38 49 -23 35 -9 35 63 2z m-406 -85 c101 -31 104 -36 110 -166
l4 -111 -27 -17 c-24 -13 -61 -16 -239 -16 l-211 0 0 79 0 80 118 85 c131 96
141 98 245 66z m467 -66 c114 -82 117 -86 119 -186 l1 -58 -202 0 c-258 1
-245 -7 -250 145 l-3 110 38 18 c46 21 132 45 167 46 16 1 63 -27 130 -75z
m336 -330 c21 -96 16 -262 -11 -346 l-19 -58 -657 0 -658 0 -11 43 c-6 23 -15
58 -21 77 -14 55 -11 214 7 291 l16 69 668 0 669 0 17 -76z m-1246 -454 c10
-38 5 -90 -9 -90 -6 0 -71 112 -71 124 0 3 16 6 35 6 31 0 35 -3 45 -40z m324
28 c-15 -25 -59 -83 -68 -90 -20 -14 -167 24 -208 54 -16 10 -28 26 -28 34 0
11 27 14 156 14 121 0 154 -3 148 -12z m464 -55 l41 -67 -31 -59 c-17 -32 -48
-76 -67 -98 -34 -38 -40 -40 -106 -45 -91 -7 -221 9 -245 31 -19 17 -83 133
-94 170 -4 14 7 37 39 78 l45 57 189 0 188 0 41 -67z m312 57 c0 -6 -6 -23
-14 -38 -25 -48 -208 -95 -240 -62 -7 8 -26 36 -41 63 l-27 47 161 0 c106 0
161 -4 161 -10z m100 3 c0 -12 -70 -130 -85 -143 -12 -10 -16 -9 -21 4 -5 14
4 54 31 134 4 12 75 18 75 5z m-470 -367 c37 -17 28 -30 -32 -43 -79 -17 -223
-14 -296 5 -132 35 -60 61 152 54 83 -2 162 -9 176 -16z"/>
<path d="M1790 2293 c-45 -23 -75 -81 -65 -129 8 -46 52 -93 90 -98 17 -2 22
-1 13 1 -35 9 -58 53 -58 110 0 86 37 135 88 119 50 -16 65 -140 23 -196 l-23
-32 22 7 c21 7 22 5 16 -21 -12 -47 -37 -94 -60 -109 -11 -8 -17 -15 -12 -15
20 0 68 45 92 86 31 53 43 152 25 206 -24 73 -89 103 -151 71z"/>
<path d="M2105 2299 c16 -5 36 -16 42 -26 19 -25 16 -87 -5 -113 -18 -22 -19
-22 -50 -6 -52 27 -70 22 -26 -6 -35 -37 -31 -90 10 -132 18 -19 28 -34 22
-34 -5 0 -22 -11 -37 -25 -37 -34 -36 -87 3 -126 16 -16 38 -29 48 -28 16 0
15 2 -3 11 -22 10 -44 47 -44 74 0 25 30 82 46 88 9 3 28 -1 44 -9 62 -32 79
-97 35 -140 -13 -14 -19 -25 -14 -25 22 0 49 22 65 52 23 44 11 91 -31 125
l-33 27 30 27 c24 23 29 35 26 66 -2 30 -10 42 -37 60 -19 13 -46 23 -60 22
-25 -1 -25 -1 4 -10z"/>
<path d="M2385 2300 c16 -5 36 -17 42 -27 19 -25 16 -87 -6 -114 l-18 -22 -36
21 c-50 32 -64 86 -30 124 25 27 0 22 -26 -6 -36 -38 -32 -88 9 -131 19 -19
29 -35 23 -35 -5 0 -22 -11 -37 -25 -39 -36 -37 -94 5 -129 17 -14 38 -26 47
-25 13 0 12 3 -5 11 -25 12 -47 66 -37 94 22 68 41 81 84 59 62 -32 79 -97 35
-140 -32 -33 -6 -33 32 -1 23 20 28 32 28 71 0 42 -4 51 -36 79 l-37 31 29 26
c58 54 28 131 -56 143 -36 5 -37 5 -10 -4z"/>
<path d="M1555 2291 c-6 -5 -26 -14 -45 -19 l-35 -10 30 -1 30 -1 -2 -147 c-1
-80 -4 -152 -7 -159 -3 -7 -15 -14 -28 -17 -13 -2 13 -5 57 -5 71 -2 77 0 55
11 l-25 13 -3 172 c-1 95 -6 172 -10 172 -5 0 -12 -4 -17 -9z"/>
<path d="M1730 1961 c0 -19 18 -31 46 -31 12 0 12 4 -2 25 -19 30 -44 33 -44
6z"/>
<path d="M2800 2440 l0 -630 115 0 115 0 0 630 0 630 -115 0 -115 0 0 -630z"/>
<path d="M1211 1609 c6 -12 7 -24 2 -28 -4 -4 -54 -43 -111 -86 -95 -72 -105
-77 -128 -66 l-25 11 23 -38 c13 -21 31 -50 41 -63 16 -22 17 -22 16 -4 -1 11
-1 25 0 32 0 7 57 56 126 109 69 53 124 98 122 100 -1 2 -19 14 -40 28 -35 24
-37 24 -26 5z"/>
<path d="M2646 1622 c-2 -4 34 -75 82 -158 68 -118 86 -157 85 -187 l0 -38 33
50 c37 54 43 71 19 51 -21 -17 -40 -7 -71 39 l-26 41 31 49 c32 49 32 49 69
39 64 -18 75 -27 68 -59 -3 -16 -4 -29 -2 -29 5 0 96 139 96 146 0 4 -8 0 -17
-8 -11 -9 -30 -14 -47 -11 -26 4 -240 60 -296 78 -10 3 -21 2 -24 -3z m119
-84 c25 -7 45 -16 45 -21 0 -4 -11 -24 -24 -44 l-24 -35 -27 42 c-48 76 -47
78 30 58z"/>
<path d="M1309 1466 c-14 -17 -24 -37 -21 -44 2 -9 13 0 29 23 31 46 26 60 -8
21z"/>
<path d="M1255 1479 c-10 -15 -2 -19 24 -12 17 4 19 8 9 14 -18 12 -26 11 -33
-2z"/>
<path d="M2492 1445 c-78 -53 -78 -52 -43 -47 27 4 32 -1 60 -49 17 -30 31
-59 31 -66 0 -12 -122 -93 -140 -93 -13 0 -60 93 -60 119 0 11 5 23 10 26 6 3
10 11 10 16 0 5 -27 -9 -61 -31 -46 -32 -73 -43 -116 -47 -53 -6 -54 -7 -31
-19 27 -14 33 -32 43 -134 3 -36 8 -78 10 -95 3 -27 -4 -22 -73 55 -160 177
-150 169 -207 160 -27 -4 -43 -8 -34 -9 42 -3 52 -41 66 -235 6 -96 6 -99 -18
-118 -18 -15 -19 -18 -6 -14 10 3 36 6 58 6 21 0 39 5 39 10 0 6 -6 10 -14 10
-7 0 -19 6 -25 13 -10 13 -44 268 -36 275 1 2 61 -60 131 -137 71 -78 133
-141 137 -141 4 0 5 24 2 53 -3 28 -8 69 -10 91 -12 105 -15 192 -8 203 5 7
23 15 40 19 30 6 33 3 71 -62 88 -151 106 -195 94 -227 l-11 -29 27 18 c15 10
45 29 66 43 l40 26 -30 5 c-22 4 -37 18 -61 60 -18 30 -33 58 -33 62 0 15 140
102 149 92 5 -5 21 -33 37 -63 23 -46 26 -58 16 -83 l-11 -29 37 23 c20 12 52
33 71 45 l34 23 -31 0 c-36 0 -46 12 -120 151 -53 99 -61 126 -40 147 28 28
-2 17 -60 -23z"/>
<path d="M1437 1402 c16 -29 16 -32 -10 -93 -15 -35 -44 -98 -65 -139 -34 -69
-39 -75 -66 -73 -40 3 -28 -6 99 -73 61 -31 116 -62 124 -68 15 -12 35 11 59
68 l13 31 -28 -26 c-40 -37 -58 -41 -104 -23 -73 30 -76 66 -17 196 57 127 75
151 105 145 32 -6 22 2 -59 47 l-67 37 16 -29z"/>
<path d="M1735 1260 c20 -22 18 -66 -12 -220 -17 -90 -25 -108 -57 -119 -14
-6 -2 -11 45 -20 35 -7 73 -14 84 -17 18 -4 18 -3 -2 12 -29 21 -29 55 -3 197
22 123 32 147 62 147 36 0 12 12 -54 26 -83 17 -84 17 -63 -6z"/>
</g>
</svg>

